# xmcd
#
# Track frame offsets: 
#        150
#        19043
#        37213
#        61298
#        80065
#        94865
#        112520
#        128190
#        144568
#        163640
#        179730
#        195078
#        215380
#        230690
#        245103
#        260750
#        277240
#        292158
#        311340
#        330365
#
# Disc length: 4659 seconds
#
# Revision: 1
# Processed by: cddbd v1.5.2PL0 Copyright (c) Steve Scherf et al.
# Submitted via: ExactAudioCopyFreeDBPlugin 1.0
#
DISCID=2e123114
DTITLE=Barry White - All Time Greatest Hits {Mercury,522 459-2}
DYEAR=1994
DGENRE=Soul
TTITLE0=Love Unlimited Orchestra - Love's Theme
TTITLE1=I'm Gonna Love You Just A Little More, Baby
TTITLE2=I've Got So Much To Give
TTITLE3=Never, Never Gonna Give You Up
TTITLE4=Honey Please, Can't Ya See
TTITLE5=Can't Get Enough Of Your Love,Babe
TTITLE6=You're The First, The Last, My Everything
TTITLE7=What Am I Gonna Do With You
TTITLE8=I'll Do For You Anything You Want Me To
TTITLE9=Let The Music Play
TTITLE10=You See The Trouble With Me
TTITLE11=Baby,We Better Try To Get It Together
TTITLE12=Don't Make Me Wait Too Long
TTITLE13=I'm Qualified To Satisfy You
TTITLE14=It's Ecstasy When You Lay Down Next To Me
TTITLE15=Playing Your Game, Baby
TTITLE16=Oh, What A Night For Dancing
TTITLE17=Your Sweetness Is My Weakness
TTITLE18=Just The Way You Are
TTITLE19=Love Unlimited Orchestra - Satin Soul
EXTD=YEAR: 1994
EXTT0=
EXTT1=
EXTT2=
EXTT3=
EXTT4=
EXTT5=
EXTT6=
EXTT7=
EXTT8=
EXTT9=
EXTT10=
EXTT11=
EXTT12=
EXTT13=
EXTT14=
EXTT15=
EXTT16=
EXTT17=
EXTT18=
EXTT19=
PLAYORDER=
